<svg width="25" height="21" viewBox="0 0 25 21" fill="none" xmlns="http://www.w3.org/2000/svg">
<path fill-rule="evenodd" clip-rule="evenodd" d="M3.36649 2.68878C4.40685 1.64874 5.81768 1.06447 7.28874 1.06447C8.75981 1.06447 10.1706 1.64874 11.211 2.68878L12.8365 4.31288L14.462 2.68878C14.9737 2.15891 15.5859 1.73627 16.2627 1.44552C16.9396 1.15477 17.6676 1.00173 18.4042 0.995327C19.1408 0.988926 19.8713 1.12929 20.5531 1.40824C21.2349 1.68718 21.8544 2.09912 22.3752 2.62001C22.8961 3.14091 23.3081 3.76032 23.587 4.44212C23.866 5.12392 24.0063 5.85444 23.9999 6.59107C23.9935 7.32769 23.8405 8.05567 23.5497 8.73251C23.259 9.40936 22.8363 10.0215 22.3065 10.5333L12.8365 20.0047L3.36649 10.5333C2.32645 9.49293 1.74219 8.0821 1.74219 6.61103C1.74219 5.13997 2.32645 3.72913 3.36649 2.68878V2.68878Z" stroke="#2B2D42" stroke-width="2" stroke-linejoin="round"/>
</svg>
