<svg width="13" height="15" viewBox="0 0 13 15" fill="none" xmlns="http://www.w3.org/2000/svg">
<path d="M4.17439 13.6963H8.52463M4.17437 7.1709H1.57437C1.431 7.17087 1.29085 7.12833 1.17164 7.04866C1.05244 6.96899 0.959533 6.85577 0.90467 6.7233C0.849806 6.59084 0.835448 6.44508 0.863411 6.30446C0.891374 6.16383 0.960402 6.03466 1.06177 5.93326L5.83688 1.15814C5.97285 1.02222 6.15723 0.945862 6.34949 0.945862C6.54174 0.945862 6.72613 1.02222 6.86209 1.15814L11.6372 5.93326C11.7386 6.03466 11.8076 6.16383 11.8356 6.30446C11.8635 6.44508 11.8492 6.59084 11.7943 6.7233C11.7394 6.85577 11.6465 6.96899 11.5273 7.04866C11.4081 7.12833 11.268 7.17087 11.1246 7.1709H8.52461V11.5211H4.17437V7.1709Z" stroke="white" stroke-linecap="round" stroke-linejoin="round"/>
</svg>
