<svg width="22" height="23" viewBox="0 0 22 23" fill="none" xmlns="http://www.w3.org/2000/svg">
<path d="M1.07419 3.16823C1.09294 2.46866 1.50575 1.83985 2.19011 1.69356C2.62969 1.59956 3.19225 1.52285 3.85715 1.52285C4.52205 1.52285 5.08463 1.59956 5.5242 1.69356C6.20853 1.83985 6.62134 2.46866 6.64011 3.16823C6.67196 4.35676 6.7143 6.36796 6.7143 8.66572C6.7143 10.9634 6.67196 12.9746 6.64011 14.1632C6.62134 14.8628 6.20853 15.4916 5.5242 15.6379C5.08463 15.7318 4.52205 15.8086 3.85715 15.8086C3.19225 15.8086 2.62969 15.7318 2.19011 15.6379C1.50575 15.4916 1.09294 14.8628 1.07419 14.1632C1.04232 12.9746 1 10.9634 1 8.66572C1 6.36796 1.04232 4.35676 1.07419 3.16823Z" stroke="white" stroke-width="2" stroke-linecap="round" stroke-linejoin="round"/>
<path d="M6.59415 14.6295C7.36372 16.3152 8.24249 18.7006 8.68349 20.1767C8.92172 20.9742 9.63834 21.5455 10.4673 21.471C10.9891 21.4241 11.5922 21.3364 12.1577 21.1743C13.1746 20.8829 13.7219 19.8836 13.7974 18.8285C13.8698 17.8164 13.867 16.7863 13.8331 15.8771C15.3795 16.0222 16.8959 16.1382 18.2527 16.2088C19.6995 16.2841 20.9128 15.2016 20.9677 13.7539C21.0693 11.0697 20.9855 6.76373 19.7513 3.41953C19.3206 2.25248 18.1718 1.55862 16.9282 1.53234C12.8797 1.44672 8.76801 1.94824 6.38867 2.3092" stroke="white" stroke-width="2" stroke-linecap="round" stroke-linejoin="round"/>
<path d="M3.85742 4.37965V5.33203" stroke="white" stroke-width="2" stroke-linecap="round" stroke-linejoin="round"/>
</svg>
