<?xml version="1.0" standalone="no"?>
<!DOCTYPE svg PUBLIC "-//W3C//DTD SVG 20010904//EN"
 "http://www.w3.org/TR/2001/REC-SVG-20010904/DTD/svg10.dtd">
<svg version="1.0" xmlns="http://www.w3.org/2000/svg"
 width="15.000000pt" height="21.000000pt" viewBox="0 0 15.000000 21.000000"
 preserveAspectRatio="xMidYMid meet">

<g transform="translate(0.000000,21.000000) scale(0.100000,-0.100000)"
fill="#000000" stroke="none">
<path d="M38 147 c-43 -59 -47 -84 -18 -115 21 -22 73 -30 96 -14 17 11 34 48
34 73 0 21 -1 21 -18 6 -26 -24 -46 -22 -32 2 15 29 12 56 -7 79 -18 20 -18
20 -55 -31z m58 -2 c4 -17 1 -32 -9 -43 -21 -23 -7 -47 22 -37 30 9 28 -22 -3
-36 -48 -22 -97 12 -87 60 3 17 53 81 63 81 4 0 10 -11 14 -25z"/>
</g>
</svg>
