<svg width="33" height="29" viewBox="0 0 33 29" fill="none" xmlns="http://www.w3.org/2000/svg">
<path d="M28.5905 15.4301L16.5134 27.3912L4.43634 15.4301C3.63975 14.6549 3.01228 13.7232 2.59346 12.6936C2.17463 11.664 1.97352 10.5589 2.00279 9.44777C2.03206 8.33665 2.29107 7.24363 2.76352 6.23753C3.23597 5.23143 3.91161 4.33405 4.74791 3.6019C5.58421 2.86975 6.56304 2.31869 7.62278 1.98341C8.68251 1.64814 9.80018 1.53592 10.9054 1.65382C12.0107 1.77172 13.0795 2.11719 14.0447 2.66847C15.0098 3.21974 15.8504 3.96489 16.5134 4.85698C17.1793 3.97136 18.0209 3.23273 18.9854 2.6873C19.9499 2.14188 21.0165 1.8014 22.1187 1.68718C23.2208 1.57297 24.3347 1.68747 25.3905 2.02353C26.4464 2.35958 27.4215 2.90995 28.2548 3.6402C29.0882 4.37044 29.7619 5.26484 30.2337 6.26741C30.7055 7.26998 30.9652 8.35914 30.9967 9.46673C31.0283 10.5743 30.8308 11.6765 30.4168 12.7043C30.0027 13.732 29.381 14.6633 28.5905 15.4397M16.5133 4.84733L11.2106 10.15C10.9088 10.4519 10.7392 10.8614 10.7392 11.2884C10.7392 11.7154 10.9088 12.1249 11.2106 12.4269L12.085 13.3013C13.1961 14.4124 14.9996 14.4124 16.1107 13.3013L17.721 11.691C18.6819 10.7301 19.9852 10.1903 21.3441 10.1903C22.703 10.1903 24.0063 10.7301 24.9672 11.691L28.5904 15.3141M17.3185 20.145L20.539 23.3655M21.3442 16.1193L24.5647 19.3398" stroke="#2B2D42" stroke-width="3" stroke-linecap="round" stroke-linejoin="round"/>
</svg>
