<svg width="27" height="28" viewBox="0 0 27 28" fill="none" xmlns="http://www.w3.org/2000/svg">
<path d="M16.8146 17.3146C14.984 19.1451 12.016 19.1451 10.1854 17.3146M16.8146 17.3146C18.6451 15.484 18.6451 12.516 16.8146 10.6854M16.8146 17.3146L21.7864 22.2864M10.1854 17.3146C8.35485 15.484 8.35485 12.516 10.1854 10.6854M10.1854 17.3146L5.21359 22.2864M10.1854 10.6854C12.016 8.85485 14.984 8.85485 16.8146 10.6854M10.1854 10.6854L5.21359 5.71359M16.8146 10.6854L21.7864 5.71359M22.3388 22.8388C17.4573 27.7204 9.54272 27.7204 4.66117 22.8388C-0.220389 17.9573 -0.220389 10.0427 4.66117 5.16117C9.54272 0.279611 17.4573 0.279611 22.3388 5.16117C27.2204 10.0427 27.2204 17.9573 22.3388 22.8388Z" stroke="#2B2D42" stroke-width="2" stroke-linecap="round" stroke-linejoin="round"/>
</svg>
