<svg width="23" height="26" viewBox="0 0 23 26" fill="none" xmlns="http://www.w3.org/2000/svg">
<path fill-rule="evenodd" clip-rule="evenodd" d="M14.3169 1.92103C12.6788 0.622679 10.3531 0.622679 8.71503 1.92103L8.7127 1.92288L1.44737 7.71696C0.550306 8.40636 0.0155994 9.46543 9.26256e-05 10.5964L-9.62019e-05 10.6101L-2.74181e-06 20.2524C-2.74181e-06 22.9129 2.17576 25.0525 4.83848 25.0525H18.1615C20.8242 25.0525 23 22.9129 23 20.2524V10.6108C22.9888 9.47753 22.4532 8.41554 21.5526 7.72741L14.3169 1.92103ZM13.0724 3.48666L20.3108 9.29528C20.3181 9.30108 20.3254 9.30678 20.3328 9.31238C20.7496 9.62825 20.9936 10.1132 21 10.6262V20.2524C21 21.7894 19.7387 23.0525 18.1615 23.0525H4.83848C3.26133 23.0525 2 21.7894 2 20.2524V10.6178C2.0089 10.1035 2.25354 9.6178 2.67024 9.29957L2.68679 9.28665L9.95737 3.48838C9.95773 3.48809 9.9581 3.4878 9.95846 3.48752C10.8679 2.76747 12.1626 2.76718 13.0724 3.48666Z" fill="black"/>
</svg>
