<svg width="24" height="25" viewBox="0 0 24 25" fill="none" xmlns="http://www.w3.org/2000/svg">
<path d="M2.375 8.75C1.82272 8.75 1.375 9.19772 1.375 9.75C1.375 10.3023 1.82272 10.75 2.375 10.75V8.75ZM21.625 10.75C22.1773 10.75 22.625 10.3023 22.625 9.75C22.625 9.19772 22.1773 8.75 21.625 8.75V10.75ZM2.49047 14.9374C1.93819 14.9374 1.49047 15.3851 1.49047 15.9374C1.49047 16.4897 1.93819 16.9374 2.49047 16.9374V14.9374ZM21.7405 16.9374C22.2928 16.9374 22.7405 16.4897 22.7405 15.9374C22.7405 15.3851 22.2928 14.9374 21.7405 14.9374V16.9374ZM22 12.5C22 18.0228 17.5228 22.5 12 22.5V24.5C18.6274 24.5 24 19.1274 24 12.5H22ZM12 22.5C6.47715 22.5 2 18.0228 2 12.5H0C0 19.1274 5.37258 24.5 12 24.5V22.5ZM2 12.5C2 6.97715 6.47715 2.5 12 2.5V0.5C5.37258 0.5 0 5.87258 0 12.5H2ZM12 2.5C17.5228 2.5 22 6.97715 22 12.5H24C24 5.87258 18.6274 0.5 12 0.5V2.5ZM12 22.5C11.6664 22.5 11.2698 22.3497 10.8218 21.9166C10.3691 21.4789 9.91566 20.7973 9.51321 19.8774C8.70959 18.0405 8.1875 15.433 8.1875 12.5H6.1875C6.1875 15.6421 6.74273 18.5346 7.68089 20.679C8.14932 21.7497 8.73292 22.679 9.43169 23.3545C10.1353 24.0347 11.0047 24.5 12 24.5V22.5ZM8.1875 12.5C8.1875 9.567 8.70959 6.95948 9.51321 5.12264C9.91566 4.20274 10.3691 3.52109 10.8218 3.08338C11.2698 2.65033 11.6664 2.5 12 2.5V0.5C11.0047 0.5 10.1353 0.965279 9.43169 1.64549C8.73292 2.32104 8.14932 3.2503 7.68089 4.32101C6.74273 6.46538 6.1875 9.35787 6.1875 12.5H8.1875ZM12 24.5C12.9953 24.5 13.8647 24.0347 14.5683 23.3545C15.2671 22.679 15.8507 21.7497 16.3191 20.679C17.2573 18.5346 17.8125 15.6421 17.8125 12.5H15.8125C15.8125 15.433 15.2904 18.0405 14.4868 19.8774C14.0843 20.7973 13.6309 21.4789 13.1782 21.9166C12.7302 22.3497 12.3336 22.5 12 22.5V24.5ZM17.8125 12.5C17.8125 9.35787 17.2573 6.46538 16.3191 4.32101C15.8507 3.2503 15.2671 2.32104 14.5683 1.64549C13.8647 0.965279 12.9953 0.5 12 0.5V2.5C12.3336 2.5 12.7302 2.65033 13.1782 3.08338C13.6309 3.52109 14.0843 4.20274 14.4868 5.12264C15.2904 6.95948 15.8125 9.567 15.8125 12.5H17.8125ZM2.375 10.75H21.625V8.75H2.375V10.75ZM2.49047 16.9374H21.7405V14.9374H2.49047V16.9374Z" fill="#2B2D42"/>
</svg>
