<svg width="22" height="23" viewBox="0 0 22 23" fill="none" xmlns="http://www.w3.org/2000/svg">
<path d="M1.07419 19.8318C1.09294 20.5313 1.50575 21.1601 2.19011 21.3064C2.62969 21.4004 3.19225 21.4771 3.85715 21.4771C4.52205 21.4771 5.08463 21.4004 5.5242 21.3064C6.20853 21.1601 6.62134 20.5313 6.64011 19.8318C6.67196 18.6432 6.7143 16.632 6.7143 14.3343C6.7143 12.0366 6.67196 10.0254 6.64011 8.83679C6.62134 8.13722 6.20853 7.50841 5.5242 7.36212C5.08463 7.26817 4.52205 7.19141 3.85715 7.19141C3.19225 7.19141 2.62969 7.26817 2.19011 7.36212C1.50575 7.50841 1.09294 8.13722 1.07419 8.83679C1.04232 10.0254 1 12.0366 1 14.3343C1 16.632 1.04232 18.6432 1.07419 19.8318Z" stroke="white" stroke-width="2" stroke-linecap="round" stroke-linejoin="round"/>
<path d="M6.59415 8.3705C7.36372 6.68483 8.24249 4.29938 8.68349 2.82331C8.92172 2.02582 9.63834 1.45447 10.4673 1.52899C10.9891 1.57589 11.5922 1.66365 12.1577 1.82571C13.1746 2.11712 13.7219 3.11641 13.7974 4.17149C13.8698 5.18359 13.867 6.21368 13.8331 7.12288C15.3795 6.97783 16.8959 6.86183 18.2527 6.79121C19.6995 6.71592 20.9128 7.7984 20.9677 9.24612C21.0693 11.9303 20.9855 16.2363 19.7513 19.5805C19.3206 20.7475 18.1718 21.4414 16.9282 21.4677C12.8797 21.5533 8.76801 21.0518 6.38867 20.6908" stroke="white" stroke-width="2" stroke-linecap="round" stroke-linejoin="round"/>
<path d="M3.85742 18.6204V17.668" stroke="white" stroke-width="2" stroke-linecap="round" stroke-linejoin="round"/>
</svg>
