<svg version="1.0" xmlns="http://www.w3.org/2000/svg" width="50" height="50" viewBox="0 0 512 512"><path d="M241.5 1.4c-2.7.7-20.3 7.5-39 15.1-18.7 7.5-42.2 17-52.2 21.1-22.8 9.2-26.7 11.2-32.9 16.7-6.8 6.1-9.4 11.3-20 39.7l-9.1 24.5-13 .6c-9.7.5-14.2 1.2-17.4 2.6-4.6 2.1-11.2 8.6-13.2 13.1-.9 2-1.3 37.5-1.7 147.2l-.5 144.5-16 .5c-14.9.5-16.2.7-19.4 2.9C.5 434.6 0 437 0 469.2c0 17.9.4 29.7 1.1 31.5 1.4 3.8 5.7 8.3 9.6 9.9 2.7 1.2 33 1.4 185.6 1.4h182.3l4.4-2.3c5.2-2.6 7.8-5.9 9-11.3.5-2.1 1-15.2 1-28.9 0-13.8-.5-26.8-1-28.9-1.1-4.8-3.6-8.4-8-11.4-3.1-2-4.4-2.2-18.6-2.2H350V182.4l13.4-5.7 13.3-5.7h52.5l1.9 2.4c4.2 5.3 6.2 5.6 38.6 5.6 29 0 29.9-.1 33.7-2.3 2.5-1.4 4.8-3.9 6.3-6.6l2.3-4.4V98.4c0-45.1-.4-68.2-1.1-70.1-.5-1.5-2.2-4.1-3.7-5.7-5.1-5.4-6.6-5.6-37.7-5.6-30.6 0-32.9.3-37.9 5.3l-2.3 2.3-86.4-12.2C295.4 5.6 254.3.1 251.5.1c-2.7 0-7.2.6-10 1.3M339 29.1c47 6.6 86.1 12.2 86.8 12.4 1 .4 1.2 12.1 1 56.2l-.3 55.8-27.5.5c-26.9.5-27.6.6-33.5 3.1C230.9 215.3 215 222 210 222c-18.1 0-27-22.4-13.8-34.7 2.6-2.5 8.5-5.2 62.7-28.9 40.7-17.8 44.3-20 49.8-31.2 2.4-5 2.8-6.9 2.8-14.7s-.4-9.8-2.8-14.6c-4.6-9.5-14.3-16.9-24.5-18.9-3.4-.6-18.3.1-52.3 2.5-41.3 3-48.5 3.7-53.5 5.6-5.1 1.9-8 4.3-21 17.1L142.2 119h-17.6c-10.7 0-17.6-.4-17.6-1 0-2 15.3-41.7 17.6-45.7 4.7-8.2 2.6-7.1 68.9-33.8 53.6-21.6 52.7-21.3 57-21.4 1.7-.1 41.5 5.3 88.5 12M495 98v64h-51V34h51zm-211.7-1.6c2.1.8 4.8 2.2 5.9 3.3 3 2.7 5.8 8.8 5.8 12.7 0 7.2 5.7 6.6-64.8 6.6h-63.6l7.4-7.5c4.4-4.4 8.9-8 10.9-8.6 1.9-.7 23.1-2.6 47-4.4 52.5-3.9 46.8-3.7 51.4-2.1m-19.4 41c-.2.2-15.3 7-33.6 15-18.2 7.9-35.3 15.6-38 17-6.2 3.1-12.7 10.2-16.1 17.4-2.3 4.9-2.7 7-2.7 15.2 0 8.7.3 10.1 3.2 16.1 3.9 7.9 10.2 14 18.1 17.7 5 2.4 6.9 2.7 15.7 2.7h10l40-17.4c22-9.5 46.8-20.2 55-23.8 8.3-3.6 15.6-6.7 16.3-7 .9-.4 1.2 27 1.2 135.1V461H60V142.3l2.1-2.7 2-2.6h100.1c55.1 0 99.9.2 99.7.4M43 454.7c0 13 1.8 17.2 8.9 21l4.4 2.3h139.4c123.2 0 139.8-.2 143-1.5 8.6-3.6 11.2-9 11.3-22.8V444h25v51H17v-51h26z"/><path d="M248.9 251.7c-1.9 2.1-22.2 27.8-45.2 57-23 29.3-42.1 53.3-42.5 53.3s-5.2-4.5-10.8-10.1c-8-8-10.7-10-13-10.1-6.1-.2-10 4-9 9.6.5 2.4 4.2 6.8 15.4 17.9 12.8 12.6 15.3 14.7 18 14.7 1.8 0 4.1-.9 5.6-2.3 1.4-1.2 23.7-29.2 49.6-62.1 42.5-54.2 47-60.3 47-63.6 0-4.8-3.3-8-8.2-8-2.9 0-4.2.7-6.9 3.7"/></svg>