<?xml version="1.0" standalone="no"?>
<!DOCTYPE svg PUBLIC "-//W3C//DTD SVG 20010904//EN"
 "http://www.w3.org/TR/2001/REC-SVG-20010904/DTD/svg10.dtd">
<svg version="1.0" xmlns="http://www.w3.org/2000/svg"
 width="512.000000pt" height="512.000000pt" viewBox="0 0 512.000000 512.000000"
 preserveAspectRatio="xMidYMid meet">

<g transform="translate(0.000000,512.000000) scale(0.100000,-0.100000)"
fill="#000000" stroke="none">
<path d="M2495 4786 c-37 -17 -70 -52 -84 -89 -6 -16 -11 -104 -11 -206 l0
-178 -85 -12 c-269 -38 -548 -149 -775 -309 -122 -86 -326 -290 -412 -412
-191 -270 -303 -587 -324 -916 l-7 -104 -174 0 c-193 0 -221 -6 -266 -59 -72
-86 -29 -224 79 -253 l44 -12 0 -796 0 -796 -44 -12 c-141 -37 -154 -242 -19
-298 48 -21 4238 -21 4286 0 135 56 122 261 -19 298 l-44 12 0 796 0 796 44
12 c108 29 151 167 79 253 -45 53 -73 59 -266 59 l-174 0 -7 98 c-24 344 -131
649 -324 922 -87 123 -291 327 -412 412 -114 80 -289 173 -420 221 -98 36
-281 80 -382 92 l-57 7 -3 193 c-3 211 -6 220 -70 268 -34 25 -113 32 -153 13z
m348 -815 c644 -135 1103 -660 1153 -1320 l7 -91 -1443 0 -1443 0 7 98 c49
685 579 1246 1258 1332 113 14 348 4 461 -19z m-1403 -2531 l0 -800 -320 0
-320 0 0 800 0 800 320 0 320 0 0 -800z m960 0 l0 -800 -320 0 -320 0 0 800 0
800 320 0 320 0 0 -800z m960 0 l0 -800 -320 0 -320 0 0 800 0 800 320 0 320
0 0 -800z m960 0 l0 -800 -320 0 -320 0 0 800 0 800 320 0 320 0 0 -800z"/>
</g>
</svg>
