<svg width="15" height="24" viewBox="0 0 15 24" fill="none" xmlns="http://www.w3.org/2000/svg">
<path fill-rule="evenodd" clip-rule="evenodd" d="M7.5 2.6001C4.46243 2.6001 2 5.06253 2 8.1001C2 10.3539 3.35578 12.2933 5.30037 13.1429C5.6646 13.302 5.9 13.6618 5.9 14.0592V17.8501C5.9 18.0158 6.03431 18.1501 6.2 18.1501H8.8C8.96568 18.1501 9.1 18.0158 9.1 17.8501V13.9501C9.1 13.5526 9.3354 13.1929 9.69963 13.0337C11.6628 12.176 13 10.3345 13 8.1001C13 5.06253 10.5376 2.6001 7.5 2.6001ZM0 8.1001C0 3.95796 3.35786 0.600098 7.5 0.600098C11.6421 0.600098 15 3.95796 15 8.1001C15 10.9554 13.4086 13.322 11.1 14.5736V17.8501C11.1 19.1203 10.0703 20.1501 8.8 20.1501H6.2C4.92974 20.1501 3.9 19.1203 3.9 17.8501V14.681C1.57723 13.4077 0 10.939 0 8.1001ZM3.9 22.4001C3.9 21.8478 4.34771 21.4001 4.9 21.4001H10.1C10.6523 21.4001 11.1 21.8478 11.1 22.4001C11.1 22.9524 10.6523 23.4001 10.1 23.4001H4.9C4.34771 23.4001 3.9 22.9524 3.9 22.4001Z" fill="black"/>
</svg>
