<svg width="22" height="21" viewBox="0 0 22 21" fill="none" xmlns="http://www.w3.org/2000/svg">
<path d="M2 11.4028H5.375L8.75 14.7778H13.25L16.625 11.4028H20M2 3.52778C2 2.93104 2.23705 2.35875 2.65901 1.93679C3.08097 1.51483 3.65326 1.27778 4.25 1.27778H17.75C18.3467 1.27778 18.919 1.51483 19.341 1.93679C19.7629 2.35875 20 2.93104 20 3.52778V17.0278C20 17.6245 19.7629 18.1968 19.341 18.6188C18.919 19.0407 18.3467 19.2778 17.75 19.2778H4.25C3.65326 19.2778 3.08097 19.0407 2.65901 18.6188C2.23705 18.1968 2 17.6245 2 17.0278V3.52778Z" stroke="#DB1436" stroke-width="2.5" stroke-linecap="round" stroke-linejoin="round"/>
</svg>
