<svg width="23" height="24" viewBox="0 0 23 24" fill="none" xmlns="http://www.w3.org/2000/svg">
<path d="M11.5 4.125C11.5 4.82119 11.7766 5.48887 12.2688 5.98116C12.7611 6.47344 13.4288 6.75 14.125 6.75C14.8212 6.75 15.4889 6.47344 15.9812 5.98116C16.4734 5.48887 16.75 4.82119 16.75 4.125M11.5 4.125C11.5 3.42881 11.7766 2.76113 12.2688 2.26884C12.7611 1.77656 13.4288 1.5 14.125 1.5C14.8212 1.5 15.4889 1.77656 15.9812 2.26884C16.4734 2.76113 16.75 3.42881 16.75 4.125M11.5 4.125H1M16.75 4.125H22M3.625 12C3.625 12.6962 3.90156 13.3639 4.39384 13.8562C4.88613 14.3484 5.55381 14.625 6.25 14.625C6.94619 14.625 7.61387 14.3484 8.10615 13.8562C8.59844 13.3639 8.875 12.6962 8.875 12M3.625 12C3.625 11.3038 3.90156 10.6361 4.39384 10.1438C4.88613 9.65156 5.55381 9.375 6.25 9.375C6.94619 9.375 7.61387 9.65156 8.10615 10.1438C8.59844 10.6361 8.875 11.3038 8.875 12M3.625 12H1M8.875 12H22M15.4375 19.875C15.4375 20.5712 15.7141 21.2389 16.2063 21.7312C16.6986 22.2234 17.3663 22.5 18.0625 22.5C18.7587 22.5 19.4264 22.2234 19.9187 21.7312C20.4109 21.2389 20.6875 20.5712 20.6875 19.875M15.4375 19.875C15.4375 19.1788 15.7141 18.5111 16.2063 18.0188C16.6986 17.5266 17.3663 17.25 18.0625 17.25C18.7587 17.25 19.4264 17.5266 19.9187 18.0188C20.4109 18.5111 20.6875 19.1788 20.6875 19.875M15.4375 19.875H1M20.6875 19.875H22" stroke="#D90429" stroke-width="2" stroke-linecap="round" stroke-linejoin="round"/>
</svg>
