<svg width="30" height="28" viewBox="0 0 30 28" fill="none" xmlns="http://www.w3.org/2000/svg">
<g filter="url(#filter0_d_408_445)">
<path d="M9 10C9 9.46957 8.78929 8.96086 8.41421 8.58579C8.03914 8.21071 7.53043 8 7 8C6.46957 8 5.96086 8.21071 5.58579 8.58579C5.21071 8.96086 5 9.46957 5 10C5 10.5304 5.21071 11.0391 5.58579 11.4142C5.96086 11.7893 6.46957 12 7 12C7.53043 12 8.03914 11.7893 8.41421 11.4142C8.78929 11.0391 9 10.5304 9 10ZM9 10H13M17 10C17 9.46957 16.7893 8.96086 16.4142 8.58579C16.0391 8.21071 15.5304 8 15 8C14.4696 8 13.9609 8.21071 13.5858 8.58579C13.2107 8.96086 13 9.46957 13 10M17 10C17 10.5304 16.7893 11.0391 16.4142 11.4142C16.0391 11.7893 15.5304 12 15 12C14.4696 12 13.9609 11.7893 13.5858 11.4142C13.2107 11.0391 13 10.5304 13 10M17 10H21M21 10C21 9.46957 21.2107 8.96086 21.5858 8.58579C21.9609 8.21071 22.4696 8 23 8C23.5304 8 24.0391 8.21071 24.4142 8.58579C24.7893 8.96086 25 9.46957 25 10C25 10.5304 24.7893 11.0391 24.4142 11.4142C24.0391 11.7893 23.5304 12 23 12C22.4696 12 21.9609 11.7893 21.5858 11.4142C21.2107 11.0391 21 10.5304 21 10ZM18 5L16 8M12 5L14 8M14 12L12 15M16 12L18 15M13 17C13 16.4696 12.7893 15.9609 12.4142 15.5858C12.0391 15.2107 11.5304 15 11 15C10.4696 15 9.96086 15.2107 9.58579 15.5858C9.21071 15.9609 9 16.4696 9 17C9 17.5304 9.21071 18.0391 9.58579 18.4142C9.96086 18.7893 10.4696 19 11 19C11.5304 19 12.0391 18.7893 12.4142 18.4142C12.7893 18.0391 13 17.5304 13 17ZM21 3C21 2.46957 20.7893 1.96086 20.4142 1.58579C20.0391 1.21071 19.5304 1 19 1C18.4696 1 17.9609 1.21071 17.5858 1.58579C17.2107 1.96086 17 2.46957 17 3C17 3.53043 17.2107 4.03914 17.5858 4.41421C17.9609 4.78929 18.4696 5 19 5C19.5304 5 20.0391 4.78929 20.4142 4.41421C20.7893 4.03914 21 3.53043 21 3ZM13 3C13 2.46957 12.7893 1.96086 12.4142 1.58579C12.0391 1.21071 11.5304 1 11 1C10.4696 1 9.96086 1.21071 9.58579 1.58579C9.21071 1.96086 9 2.46957 9 3C9 3.53043 9.21071 4.03914 9.58579 4.41421C9.96086 4.78929 10.4696 5 11 5C11.5304 5 12.0391 4.78929 12.4142 4.41421C12.7893 4.03914 13 3.53043 13 3ZM21 17C21 16.4696 20.7893 15.9609 20.4142 15.5858C20.0391 15.2107 19.5304 15 19 15C18.4696 15 17.9609 15.2107 17.5858 15.5858C17.2107 15.9609 17 16.4696 17 17C17 17.5304 17.2107 18.0391 17.5858 18.4142C17.9609 18.7893 18.4696 19 19 19C19.5304 19 20.0391 18.7893 20.4142 18.4142C20.7893 18.0391 21 17.5304 21 17Z" stroke="#354052" stroke-width="2" stroke-linecap="round" stroke-linejoin="round" shape-rendering="crispEdges"/>
</g>
<defs>
<filter id="filter0_d_408_445" x="0" y="0" width="30" height="28" filterUnits="userSpaceOnUse" color-interpolation-filters="sRGB">
<feFlood flood-opacity="0" result="BackgroundImageFix"/>
<feColorMatrix in="SourceAlpha" type="matrix" values="0 0 0 0 0 0 0 0 0 0 0 0 0 0 0 0 0 0 127 0" result="hardAlpha"/>
<feOffset dy="4"/>
<feGaussianBlur stdDeviation="2"/>
<feComposite in2="hardAlpha" operator="out"/>
<feColorMatrix type="matrix" values="0 0 0 0 0 0 0 0 0 0 0 0 0 0 0 0 0 0 0.25 0"/>
<feBlend mode="normal" in2="BackgroundImageFix" result="effect1_dropShadow_408_445"/>
<feBlend mode="normal" in="SourceGraphic" in2="effect1_dropShadow_408_445" result="shape"/>
</filter>
</defs>
</svg>
