<svg width="24" height="24" viewBox="0 0 24 24" fill="none" xmlns="http://www.w3.org/2000/svg">
<path d="M9.06745 23.6666L8.60078 19.9333C8.348 19.836 8.11 19.7194 7.88678 19.5833C7.66278 19.4471 7.44384 19.3013 7.22995 19.1458L3.75911 20.6041L0.550781 15.0624L3.55495 12.7874C3.5355 12.6513 3.52578 12.5199 3.52578 12.3931C3.52578 12.2671 3.52578 12.136 3.52578 11.9999C3.52578 11.8638 3.52578 11.7324 3.52578 11.6056C3.52578 11.4796 3.5355 11.3485 3.55495 11.2124L0.550781 8.93742L3.75911 3.39575L7.22995 4.85409C7.44384 4.69853 7.66745 4.5527 7.90078 4.41659C8.13411 4.28047 8.36745 4.16381 8.60078 4.06659L9.06745 0.333252H15.4841L15.9508 4.06659C16.2036 4.16381 16.4419 4.28047 16.6659 4.41659C16.8892 4.5527 17.1077 4.69853 17.3216 4.85409L20.7924 3.39575L24.0008 8.93742L20.9966 11.2124C21.0161 11.3485 21.0258 11.4796 21.0258 11.6056C21.0258 11.7324 21.0258 11.8638 21.0258 11.9999C21.0258 12.136 21.0258 12.2671 21.0258 12.3931C21.0258 12.5199 21.0063 12.6513 20.9674 12.7874L23.9716 15.0624L20.7633 20.6041L17.3216 19.1458C17.1077 19.3013 16.8841 19.4471 16.6508 19.5833C16.4174 19.7194 16.1841 19.836 15.9508 19.9333L15.4841 23.6666H9.06745ZM12.3341 16.0833C13.4619 16.0833 14.4244 15.6846 15.2216 14.8874C16.0188 14.0902 16.4174 13.1277 16.4174 11.9999C16.4174 10.8721 16.0188 9.90964 15.2216 9.11242C14.4244 8.3152 13.4619 7.91659 12.3341 7.91659C11.1869 7.91659 10.2193 8.3152 9.43145 9.11242C8.64434 9.90964 8.25078 10.8721 8.25078 11.9999C8.25078 13.1277 8.64434 14.0902 9.43145 14.8874C10.2193 15.6846 11.1869 16.0833 12.3341 16.0833ZM12.3341 13.7499C11.848 13.7499 11.435 13.5796 11.0951 13.2389C10.7544 12.899 10.5841 12.486 10.5841 11.9999C10.5841 11.5138 10.7544 11.1008 11.0951 10.7609C11.435 10.4203 11.848 10.2499 12.3341 10.2499C12.8202 10.2499 13.2336 10.4203 13.5743 10.7609C13.9142 11.1008 14.0841 11.5138 14.0841 11.9999C14.0841 12.486 13.9142 12.899 13.5743 13.2389C13.2336 13.5796 12.8202 13.7499 12.3341 13.7499ZM11.1091 21.3333H13.4133L13.8216 18.2416C14.4244 18.086 14.9836 17.8574 15.4993 17.5556C16.0142 17.2546 16.4855 16.8902 16.9133 16.4624L19.8008 17.6583L20.9383 15.6749L18.4299 13.7791C18.5272 13.5069 18.5952 13.2199 18.6341 12.9181C18.673 12.6171 18.6924 12.311 18.6924 11.9999C18.6924 11.6888 18.673 11.3824 18.6341 11.0806C18.5952 10.7796 18.5272 10.493 18.4299 10.2208L20.9383 8.32492L19.8008 6.34159L16.9133 7.56659C16.4855 7.11936 16.0142 6.74486 15.4993 6.44309C14.9836 6.14209 14.4244 5.91381 13.8216 5.75825L13.4424 2.66659H11.1383L10.7299 5.75825C10.1272 5.91381 9.56834 6.14209 9.05345 6.44309C8.53778 6.74486 8.06606 7.10964 7.63828 7.53742L4.75078 6.34159L3.61328 8.32492L6.12161 10.1916C6.02439 10.4833 5.95634 10.7749 5.91745 11.0666C5.87856 11.3583 5.85911 11.6694 5.85911 11.9999C5.85911 12.311 5.87856 12.6124 5.91745 12.9041C5.95634 13.1958 6.02439 13.4874 6.12161 13.7791L3.61328 15.6749L4.75078 17.6583L7.63828 16.4333C8.06606 16.8805 8.53778 17.2546 9.05345 17.5556C9.56834 17.8574 10.1272 18.086 10.7299 18.2416L11.1091 21.3333Z" fill="#2B2D42"/>
</svg>
