<svg width="31" height="37" viewBox="0 0 31 37" fill="none" xmlns="http://www.w3.org/2000/svg">
<path d="M23.6537 16.9114C23.4185 15.7199 23.1459 14.7171 22.9039 13.9434C22.5375 12.7715 21.6047 11.9043 20.3935 11.7028C19.3006 11.5211 17.6956 11.3525 15.5009 11.3525C13.3062 11.3525 11.7012 11.5211 10.6081 11.7028C9.3968 11.9043 8.46395 12.7716 8.09738 13.9437C7.85542 14.7173 7.58287 15.7201 7.34766 16.9114" stroke="#2B2D42" stroke-width="3" stroke-linecap="round" stroke-linejoin="round"/>
<path d="M15.501 11.3529C18.1325 11.3529 20.2657 9.21967 20.2657 6.58819C20.2657 3.95672 18.1325 1.82349 15.501 1.82349C12.8696 1.82349 10.7363 3.95672 10.7363 6.58819C10.7363 9.21967 12.8696 11.3529 15.501 11.3529Z" stroke="#2B2D42" stroke-width="3" stroke-linecap="round" stroke-linejoin="round"/>
<path d="M3.30189 20.1797C2.69291 20.1914 2.16283 20.565 2.08058 21.1685C2.03461 21.5058 2 21.9368 2 22.4702C2 23.0037 2.03461 23.4347 2.08058 23.772C2.16283 24.3755 2.69291 24.7491 3.30189 24.7608C5.02471 24.7937 9.0142 24.8526 15.5 24.8526C21.9858 24.8526 25.9753 24.7937 27.6981 24.7608C28.3071 24.7491 28.8371 24.3755 28.9194 23.772C28.9654 23.4347 29 23.0037 29 22.4702C29 21.9368 28.9654 21.5058 28.9194 21.1685C28.8371 20.565 28.3071 20.1914 27.6981 20.1797C25.9753 20.1468 21.9858 20.0879 15.5 20.0879C9.0142 20.0879 5.02471 20.1468 3.30189 20.1797Z" stroke="#2B2D42" stroke-width="3" stroke-linecap="round" stroke-linejoin="round"/>
<path d="M4.24219 24.7778C4.94262 30.9338 5.57497 35.1767 5.57497 35.1767" stroke="#2B2D42" stroke-width="3" stroke-linecap="round" stroke-linejoin="round"/>
<path d="M26.7605 24.7778C26.0601 30.9338 25.4277 35.1767 25.4277 35.1767" stroke="#2B2D42" stroke-width="3" stroke-linecap="round" stroke-linejoin="round"/>
<path d="M15.5 16.1177V20.0883" stroke="#2B2D42" stroke-width="3" stroke-linecap="round" stroke-linejoin="round"/>
</svg>
