<svg width="12" height="13" viewBox="0 0 12 13" fill="none" xmlns="http://www.w3.org/2000/svg">
<path d="M1.37592 9.42246L0.965571 9.13678H0.965571L1.37592 9.42246ZM2.05722 7.31461L1.55722 7.309V7.31461H2.05722ZM2.07152 6.04019L2.57152 6.0458V6.04019H2.07152ZM10.6291 9.43269L11.0449 9.15507L11.0449 9.15507L10.6291 9.43269ZM9.97342 7.31461L9.47342 7.30871V7.31461H9.97342ZM9.98772 6.10334L10.4877 6.10924V6.10334H9.98772ZM4.74969 11.3285C4.53356 11.1566 4.21902 11.1925 4.04714 11.4086C3.87526 11.6248 3.91114 11.9393 4.12727 12.1112L4.74969 11.3285ZM7.8741 12.1112C8.09023 11.9393 8.1261 11.6248 7.95423 11.4086C7.78235 11.1925 7.46781 11.1566 7.25167 11.3285L7.8741 12.1112ZM0.532623 2.93436C0.434511 3.19248 0.564226 3.48127 0.822351 3.57938C1.08048 3.6775 1.36926 3.54778 1.46738 3.28966L0.532623 2.93436ZM3.00715 1.43473C3.24725 1.29832 3.3313 0.993103 3.19489 0.753006C3.05848 0.512909 2.75326 0.428855 2.51316 0.565266L3.00715 1.43473ZM9.47919 0.573695C9.24059 0.434669 8.93447 0.515384 8.79545 0.753977C8.65642 0.99257 8.73714 1.29869 8.97573 1.43772L9.47919 0.573695ZM10.5308 3.2791C10.6263 3.53822 10.9137 3.67089 11.1728 3.57544C11.432 3.47998 11.5646 3.19254 11.4692 2.93342L10.5308 3.2791ZM1.78627 9.70814C2.17449 9.1505 2.55722 8.32222 2.55722 7.31461H1.55722C1.55722 8.06603 1.27072 8.69847 0.965571 9.13678L1.78627 9.70814ZM2.55719 7.32022L2.57149 6.0458L1.57156 6.03458L1.55726 7.309L2.55719 7.32022ZM11.0449 9.15507C10.7524 8.71686 10.4734 8.07763 10.4734 7.31461H9.47342C9.47342 8.3227 9.84062 9.15217 10.2132 9.71031L11.0449 9.15507ZM10.4734 7.32051L10.4877 6.10924L9.48775 6.09744L9.47345 7.30871L10.4734 7.32051ZM10.4877 6.10334C10.4877 3.46647 8.51896 1.25291 6.00068 1.25291V2.25291C7.88636 2.25291 9.48772 3.93486 9.48772 6.10334H10.4877ZM10.3905 10.5233C10.7992 10.5233 11.0334 10.2149 11.1209 9.99041C11.2112 9.75896 11.2295 9.43161 11.0449 9.15507L10.2132 9.71031C10.191 9.67707 10.1878 9.6503 10.1874 9.64183C10.187 9.63366 10.1881 9.63006 10.1893 9.62696C10.1901 9.62495 10.1976 9.60552 10.2256 9.58155C10.2574 9.55433 10.3152 9.52333 10.3905 9.52333V10.5233ZM2.57152 6.04019C2.57152 3.90658 4.14697 2.25291 6.00068 2.25291V1.25291C3.51437 1.25291 1.57152 3.43819 1.57152 6.04019H2.57152ZM1.61146 9.52333C1.68845 9.52333 1.74688 9.55556 1.77823 9.58292C1.80569 9.60689 1.81241 9.62569 1.81269 9.62643C1.8134 9.62832 1.81444 9.63092 1.81395 9.63859C1.81345 9.64651 1.80999 9.67408 1.78627 9.70814L0.965571 9.13678C0.772395 9.41426 0.789192 9.74719 0.877395 9.98031C0.962654 10.2057 1.19617 10.5233 1.61146 10.5233V9.52333ZM10.3905 9.52333H1.61146V10.5233H10.3905V9.52333ZM6.00068 11.75C5.51177 11.75 5.07441 11.5867 4.74969 11.3285L4.12727 12.1112C4.6317 12.5123 5.28927 12.75 6.00068 12.75V11.75ZM7.25167 11.3285C6.92696 11.5867 6.48959 11.75 6.00068 11.75V12.75C6.7121 12.75 7.36966 12.5123 7.8741 12.1112L7.25167 11.3285ZM1.46738 3.28966C1.77268 2.48643 2.31446 1.82829 3.00715 1.43473L2.51316 0.565266C1.59773 1.08537 0.911799 1.93678 0.532623 2.93436L1.46738 3.28966ZM8.97573 1.43772C9.68638 1.8518 10.2426 2.49682 10.5308 3.2791L11.4692 2.93342C11.0978 1.92522 10.3833 1.10049 9.47919 0.573695L8.97573 1.43772Z" fill="#D90429"/>
</svg>
