<svg width="12" height="13" viewBox="0 0 12 13" fill="none" xmlns="http://www.w3.org/2000/svg">
<path d="M11 9.31943C10.643 8.80122 10.2961 8.03735 10.2961 7.11619L10.3115 5.85622C10.3115 3.35695 8.39515 1.33088 6.03124 1.33088C5.77694 1.33088 5.52789 1.35468 5.28598 1.40027M4.35416 11.6985C4.79922 12.0415 5.38695 12.25 6.03124 12.25C6.67554 12.25 7.26326 12.0415 7.70833 11.6985M8.37916 9.93381H1.31925C1.0541 9.93381 0.906004 9.53202 1.0664 9.30878C1.43857 8.79079 1.7978 8.03106 1.7978 7.11619L1.81315 5.79053C1.81315 4.7276 2.16487 3.75153 2.75198 2.98531M9.72082 11.5883L2.00625 1" stroke="white" stroke-linecap="round"/>
</svg>
