<svg width="8" height="12" viewBox="0 0 8 12" fill="none" xmlns="http://www.w3.org/2000/svg">
<path d="M4.87013 11.622C4.40213 11.622 3.9168 11.5657 3.41413 11.453C2.91147 11.349 2.44347 11.1627 2.01013 10.894C1.5768 10.634 1.22147 10.2787 0.944133 9.828C0.675466 9.386 0.541133 8.827 0.541133 8.151C0.541133 7.527 0.666799 6.942 0.918133 6.396C1.16947 5.85 1.5248 5.356 1.98413 4.914C2.45213 4.472 3.00247 4.09933 3.63513 3.796C4.2678 3.49267 4.96547 3.276 5.72813 3.146L6.00113 4.16C5.36847 4.27267 4.78347 4.44167 4.24613 4.667C3.7088 4.89233 3.2408 5.16967 2.84213 5.499C2.45213 5.81967 2.1488 6.188 1.93213 6.604C1.71547 7.02867 1.60713 7.49233 1.60713 7.995C1.60713 8.40233 1.67647 8.75333 1.81513 9.048C1.9538 9.34267 2.1358 9.58533 2.36113 9.776C2.59513 9.97533 2.85513 10.1313 3.14113 10.244C3.42713 10.3567 3.71747 10.4347 4.01213 10.478C4.31547 10.53 4.60147 10.556 4.87013 10.556C5.32947 10.556 5.79747 10.5127 6.27413 10.426C6.7508 10.348 7.18413 10.2267 7.57413 10.062L7.91213 10.972C7.70413 11.076 7.4268 11.1757 7.08013 11.271C6.74213 11.375 6.37813 11.4573 5.98813 11.518C5.59813 11.5873 5.22547 11.622 4.87013 11.622ZM2.72513 4.732C2.37847 4.64533 2.06647 4.48933 1.78913 4.264C1.5118 4.03867 1.2908 3.77 1.12613 3.458C0.970133 3.146 0.892133 2.81667 0.892133 2.47C0.892133 1.924 1.0178 1.469 1.26913 1.105C1.52913 0.741 1.85847 0.468 2.25713 0.286C2.66447 0.104 3.09347 0.0129998 3.54413 0.0129998C3.74347 0.0129998 3.9558 0.0303331 4.18113 0.0649996C4.40647 0.0996663 4.62313 0.151666 4.83113 0.221L4.61013 1.222C4.4368 1.17867 4.2548 1.144 4.06413 1.118C3.87347 1.092 3.70013 1.079 3.54413 1.079C3.23213 1.079 2.9548 1.13533 2.71213 1.248C2.46947 1.36067 2.2788 1.51667 2.14013 1.716C2.00147 1.90667 1.93213 2.132 1.93213 2.392C1.93213 2.626 1.99713 2.83833 2.12713 3.029C2.2658 3.211 2.43913 3.37133 2.64713 3.51C2.85513 3.64 3.06747 3.73967 3.28413 3.809C3.5008 3.86967 3.69147 3.89567 3.85613 3.887L2.72513 4.732Z" fill="#D90429"/>
</svg>
