<svg width="17" height="18" viewBox="0 0 17 18" fill="none" xmlns="http://www.w3.org/2000/svg">
<path d="M5.64575 17.0636H11.1824M5.64573 8.75859H2.33664C2.15416 8.75855 1.97579 8.70441 1.82408 8.60301C1.67237 8.50162 1.55412 8.35751 1.48429 8.18892C1.41447 8.02033 1.39619 7.83482 1.43178 7.65584C1.46737 7.47687 1.55523 7.31246 1.68424 7.18341L7.76166 1.10599C7.9347 0.932998 8.16937 0.835815 8.41406 0.835815C8.65875 0.835815 8.89342 0.932998 9.06647 1.10599L15.1439 7.18341C15.2729 7.31246 15.3608 7.47687 15.3963 7.65584C15.4319 7.83482 15.4137 8.02033 15.3438 8.18892C15.274 8.35751 15.1558 8.50162 15.004 8.60301C14.8523 8.70441 14.674 8.75855 14.4915 8.75859H11.1824V14.2953H5.64573V8.75859Z" stroke="#2B2D42" stroke-width="1.5" stroke-linecap="round" stroke-linejoin="round"/>
</svg>
