<svg width="31" height="27" viewBox="0 0 31 27" fill="none" xmlns="http://www.w3.org/2000/svg">
<path d="M24.5 7.48382C25.6935 7.48382 26.8381 7.95792 27.682 8.80184C28.5259 9.64575 29 10.7903 29 11.9838C29 13.1773 28.5259 14.3219 27.682 15.1658C26.8381 16.0097 25.6935 16.4838 24.5 16.4838M12.5 7.48382V23.9838C12.5 24.3816 12.342 24.7632 12.0607 25.0445C11.7794 25.3258 11.3978 25.4838 11 25.4838H9.5C9.10218 25.4838 8.72064 25.3258 8.43934 25.0445C8.15804 24.7632 8 24.3816 8 23.9838V16.4838M15.5 7.48381L22.286 1.82881C22.4832 1.66457 22.7231 1.55994 22.9776 1.52717C23.2321 1.4944 23.4907 1.53485 23.7231 1.64378C23.9554 1.75272 24.1519 1.92562 24.2895 2.14223C24.4271 2.35884 24.5001 2.61019 24.5 2.86681V21.1008C24.5001 21.3574 24.4271 21.6088 24.2895 21.8254C24.1519 22.042 23.9554 22.2149 23.7231 22.3238C23.4907 22.4328 23.2321 22.4732 22.9776 22.4405C22.7231 22.4077 22.4832 22.3031 22.286 22.1388L15.5 16.4838H3.5C3.10218 16.4838 2.72064 16.3258 2.43934 16.0445C2.15804 15.7632 2 15.3816 2 14.9838V8.98381C2 8.58598 2.15804 8.20445 2.43934 7.92315C2.72064 7.64185 3.10218 7.48381 3.5 7.48381H15.5Z" stroke="#2B2D42" stroke-width="3" stroke-linecap="round" stroke-linejoin="round"/>
</svg>
